<svg width="92" height="92" viewBox="0 0 92 92" fill="none" xmlns="http://www.w3.org/2000/svg">
<path d="M46 89.3333C69.933 89.3333 89.3333 69.933 89.3333 46C89.3333 22.067 69.933 2.66667 46 2.66667C22.067 2.66667 2.66663 22.067 2.66663 46C2.66663 69.933 22.067 89.3333 46 89.3333Z" stroke="black" stroke-width="3.5" stroke-linecap="round" stroke-linejoin="round"/>
<path d="M56.1096 76.3333V68.2603C56.218 66.917 56.0316 65.5737 55.5636 64.304C55.0925 63.0336 54.3535 61.8793 53.3969 60.9197C62.4666 59.936 71.9999 56.5863 71.9999 41.229C71.9916 37.2816 70.4359 33.4948 67.6666 30.6817C68.9846 27.2501 68.8911 23.4365 67.4066 20.0737C67.4066 20.0737 63.9963 19.09 56.1096 24.238C49.483 22.4911 42.5169 22.4911 35.8903 24.238C28.0036 19.09 24.5933 20.078 24.5933 20.078C23.1112 23.4383 23.0177 27.2484 24.3333 30.6773C21.5448 33.5113 19.9876 37.3313 20 41.307C20 56.556 29.5333 59.9013 38.603 60.9977C37.6568 61.9489 36.9241 63.0908 36.4536 64.3473C35.9866 65.5945 35.7944 66.9278 35.8903 68.256V76.3333" stroke="black" stroke-width="3.5" stroke-linecap="round" stroke-linejoin="round"/>
<path d="M35.8903 70.7087C27.2236 73.443 20 70.7087 15.6666 62.2673" stroke="black" stroke-width="3.5" stroke-linecap="round" stroke-linejoin="round"/>
</svg>
