<svg width="24" height="26" viewBox="0 0 24 26" fill="none" xmlns="http://www.w3.org/2000/svg">
<path d="M19.0625 8.31904C21.6726 9.78071 22.9777 10.5115 23.4118 11.4729C23.7902 12.3111 23.7902 13.2715 23.4118 14.1096C22.9777 15.071 21.6726 15.8019 19.0625 17.2635L7.9823 23.4684C5.47334 24.8735 4.21885 25.576 3.19161 25.4585C2.29538 25.3559 1.48391 24.8803 0.956556 24.1484C0.352112 23.3096 0.352112 21.8718 0.352112 18.9962L0.352113 6.58635C0.352113 3.71077 0.352113 2.27298 0.956557 1.43412C1.48391 0.702246 2.29538 0.226623 3.19161 0.124102C4.21886 0.00659267 5.47334 0.709103 7.9823 2.11412L19.0625 8.31904Z" fill="black"/>
</svg>
